<?xml version="1.0" encoding="UTF-8" standalone="no"?>
<svg
   xmlns:dc="http://purl.org/dc/elements/1.1/"
   xmlns:cc="http://creativecommons.org/ns#"
   xmlns:rdf="http://www.w3.org/1999/02/22-rdf-syntax-ns#"
   xmlns:svg="http://www.w3.org/2000/svg"
   xmlns="http://www.w3.org/2000/svg"
   viewBox="0 0 600 600"
   version="1.0"
   height="600"
   width="600"
   id="svg2">
  <defs
     id="defs5" />
  <g
     transform="rotate(-90,301.30744,303.23279)"
     id="g12143"
     style="fill:#ffffff;stroke:#ffffff;fill-opacity:1;stroke-opacity:1">
    <path
       style="fill:#ffffff;fill-opacity:1;fill-rule:evenodd;stroke:#ffffff;stroke-width:1.41697001;stroke-linecap:butt;stroke-linejoin:miter;stroke-miterlimit:4;stroke-dasharray:none;stroke-opacity:1"
       d="m 268.71875,138 -66.90625,21.5625 0.4375,1.34375 66.90625,-21.5625 L 268.71875,138 Z"
       id="path3502" />
    <path
       style="fill:#ffffff;fill-rule:evenodd;stroke:#ffffff;stroke-width:1.13356993pt;marker-start:none;fill-opacity:1;stroke-opacity:1"
       d="m 255.45923,143.0299 -3.65613,7.13317 17.14276,-11.47946 -20.6198,0.69016 7.13317,3.65613 z"
       id="path12149" />
  </g>
  <g
     transform="rotate(-90,301.30744,303.23279)"
     id="g12151"
     style="fill:#ffffff;stroke:#ffffff;fill-opacity:1;stroke-opacity:1">
    <path
       style="fill:#ffffff;fill-opacity:1;fill-rule:evenodd;stroke:#ffffff;stroke-width:1.41697001;stroke-linecap:butt;stroke-linejoin:miter;stroke-miterlimit:4;stroke-dasharray:none;stroke-opacity:1"
       d="m 399.90625,181.84375 -1.125,0.875 35.53125,45.78125 1.125,-0.875 -35.53125,-45.78125 z"
       id="path3504" />
    <path
       style="fill:#ffffff;fill-rule:evenodd;stroke:#ffffff;stroke-width:1.13356993pt;marker-start:none;fill-opacity:1;stroke-opacity:1"
       d="m 426.19968,216.87848 -7.95238,-1.00451 16.63722,12.20063 -7.68032,-19.1485 -1.00452,7.95238 z"
       id="path12157" />
  </g>
  <g
     transform="rotate(-90,301.30744,303.23279)"
     id="g12159"
     style="fill:#ffffff;stroke:#ffffff;fill-opacity:1;stroke-opacity:1">
    <path
       style="fill:#ffffff;fill-opacity:1;fill-rule:evenodd;stroke:#ffffff;stroke-width:1.41697001;stroke-linecap:butt;stroke-linejoin:miter;stroke-miterlimit:4;stroke-dasharray:none;stroke-opacity:1"
       d="m 436.375,365.59375 -34.78125,54.25 1.1875,0.75 34.78125,-54.25 -1.1875,-0.75 z"
       id="path3506" />
    <path
       style="fill:#ffffff;fill-rule:evenodd;stroke:#ffffff;stroke-width:1.13356993pt;marker-start:none;fill-opacity:1;stroke-opacity:1"
       d="m 409.83512,408.28928 -1.71438,-7.83009 -5.93027,19.76067 15.47474,-13.64496 -7.83009,1.71438 z"
       id="path12165" />
  </g>
  <g
     transform="rotate(-90,301.30744,303.23279)"
     id="g12167"
     style="fill:#ffffff;stroke:#ffffff;fill-opacity:1;stroke-opacity:1">
    <path
       style="fill:#ffffff;fill-opacity:1;fill-rule:evenodd;stroke:#ffffff;stroke-width:1.41697001;stroke-linecap:butt;stroke-linejoin:miter;stroke-miterlimit:4;stroke-dasharray:none;stroke-opacity:1"
       d="m 123.375,273.53125 -1.40625,0.0312 1.3125,63.0625 1.40625,-0.0312 -1.3125,-63.0625 z"
       id="path3508" />
    <path
       style="fill:#ffffff;fill-rule:evenodd;stroke:#ffffff;stroke-width:1.13356993pt;marker-start:none;fill-opacity:1;stroke-opacity:1"
       d="m 122.96704,287.71548 5.78435,5.54894 -6.07861,-19.71555 -5.25468,19.95096 5.54894,-5.78435 z"
       id="path12173" />
  </g>
  <g
     transform="rotate(-90,301.30744,303.23279)"
     id="g12175"
     style="fill:#ffffff;stroke:#ffffff;fill-opacity:1;stroke-opacity:1">
    <path
       style="fill:#ffffff;fill-opacity:1;fill-rule:evenodd;stroke:#ffffff;stroke-width:1.41697001;stroke-linecap:butt;stroke-linejoin:miter;stroke-miterlimit:4;stroke-dasharray:none;stroke-opacity:1"
       d="m 208.5,446.84375 -0.40625,1.375 63.53125,19.34375 0.40625,-1.375 L 208.5,446.84375 Z"
       id="path3510" />
    <path
       style="fill:#ffffff;fill-rule:evenodd;stroke:#ffffff;stroke-width:1.13356993pt;marker-start:none;fill-opacity:1;stroke-opacity:1"
       d="m 221.85442,451.65692 7.07313,-3.77097 -20.62826,-0.35672 17.32611,11.20082 -3.77098,-7.07313 z"
       id="path12181" />
  </g>
  <g
     transform="rotate(-90,301.30744,303.23279)"
     id="g12183"
     style="fill:#ffffff;stroke:#ffffff;stroke-opacity:1;fill-opacity:1">
    <path
       style="fill:#ffffff;fill-opacity:1;fill-rule:evenodd;stroke:#ffffff;stroke-width:1.41697001;stroke-linecap:butt;stroke-linejoin:miter;stroke-miterlimit:4;stroke-dasharray:none;stroke-opacity:1"
       d="m 203.59375,211.53125 -0.40625,1.375 201.625,61.5625 0.40625,-1.34375 -201.625,-61.59375 z"
       id="path3512" />
    <path
       style="fill:#ffffff;fill-rule:evenodd;stroke:#ffffff;stroke-width:1.13356993pt;marker-start:none;stroke-opacity:1;fill-opacity:1"
       d="m 216.94413,216.36195 7.07604,-3.76552 -20.62798,-0.37264 17.31745,11.2142 -3.76551,-7.07604 z"
       id="path12189" />
  </g>
  <g
     transform="rotate(-90,301.30744,303.23279)"
     id="g12191"
     style="fill:#ffffff;stroke:#ffffff;fill-opacity:1;stroke-opacity:1">
    <path
       style="fill:#ffffff;fill-opacity:1;fill-rule:evenodd;stroke:#ffffff;stroke-width:1.41697001;stroke-linecap:butt;stroke-linejoin:miter;stroke-miterlimit:4;stroke-dasharray:none;stroke-opacity:1"
       d="m 172.46875,255.46875 -1.125,0.875 132.09375,166.34375 1.09375,-0.875 -132.0625,-166.34375 z"
       id="path3514" />
    <path
       style="fill:#ffffff;fill-rule:evenodd;stroke:#ffffff;stroke-width:1.13356993pt;marker-start:none;fill-opacity:1;stroke-opacity:1"
       d="m 295.17468,411.15895 -7.96324,-0.91444 16.77424,12.01155 -7.89655,-19.06035 -0.91445,7.96324 z"
       id="path12197" />
  </g>
  <g
     transform="rotate(-90,301.30744,303.23279)"
     id="g12199"
     style="fill:#ffffff;stroke:#ffffff;fill-opacity:1;stroke-opacity:1">
    <path
       style="fill:#ffffff;fill-opacity:1;fill-rule:evenodd;stroke:#ffffff;stroke-width:1.41697001;stroke-linecap:butt;stroke-linejoin:miter;stroke-miterlimit:4;stroke-dasharray:none;stroke-opacity:1"
       d="M 299.1875,181.1875 177.5625,353.15625 178.71875,354 300.34375,182 299.1875,181.1875 Z"
       id="path3516" />
    <path
       style="fill:#ffffff;fill-rule:evenodd;stroke:#ffffff;stroke-width:1.13356993pt;marker-start:none;fill-opacity:1;stroke-opacity:1"
       d="m 186.33019,342.00975 -1.35498,-7.90021 -6.82655,19.46922 16.08175,-12.924 -7.90022,1.35499 z"
       id="path12205" />
  </g>
  <g
     transform="rotate(-90,301.30744,303.23279)"
     id="g12207"
     style="fill:#ffffff;stroke:#ffffff;stroke-opacity:1;fill-opacity:1">
    <path
       style="fill:#ffffff;fill-opacity:1;fill-rule:evenodd;stroke:#ffffff;stroke-width:1.41697001;stroke-linecap:butt;stroke-linejoin:miter;stroke-miterlimit:4;stroke-dasharray:none;stroke-opacity:1"
       d="m 351.9375,199.21875 -1.40625,0.0312 2.65625,205.375 1.40625,-0.0312 -2.65625,-205.375 z"
       id="path3518" />
    <path
       style="fill:#ffffff;fill-rule:evenodd;stroke:#ffffff;stroke-width:1.13356993pt;marker-start:none;stroke-opacity:1;fill-opacity:1"
       d="m 351.41255,213.40964 5.74085,5.59392 -5.92452,-19.7624 -5.41026,19.90933 5.59393,-5.74085 z"
       id="path12213" />
  </g>
  <g
     transform="rotate(-90,301.30744,303.23279)"
     id="g12215"
     style="fill:#ffffff;stroke:#ffffff;fill-opacity:1;stroke-opacity:1">
    <path
       style="fill:#ffffff;fill-opacity:1;fill-rule:evenodd;stroke:#ffffff;stroke-width:1.41697001;stroke-linecap:butt;stroke-linejoin:miter;stroke-miterlimit:4;stroke-dasharray:none;stroke-opacity:1"
       d="M 406.8125,323.78125 206.03125,394.40625 206.5,395.75 407.28125,325.125 406.8125,323.78125 Z"
       id="path3520" />
    <path
       style="fill:#ffffff;fill-rule:evenodd;stroke:#ffffff;stroke-width:1.13356993pt;marker-start:none;fill-opacity:1;stroke-opacity:1"
       d="m 393.67944,329.15315 -3.46559,7.22767 16.83215,-11.93026 -20.59423,1.237 7.22767,3.46559 z"
       id="path12221" />
  </g>
</svg>
